<svg width="39" height="38" viewBox="0 0 39 38" fill="none" xmlns="http://www.w3.org/2000/svg">
<g clip-path="url(#clip0_632_9)">
<path d="M22.8863 0C18.9397 0 15.3352 1.51768 12.6035 4.00929C13.2094 4.99077 13.5536 6.13268 13.586 7.31139L13.5861 7.31482L13.5862 7.31825C13.6 7.84937 13.6311 8.38063 13.6758 8.91107C15.7477 6.01071 19.1035 4.12041 22.8863 4.12041C29.1651 4.12041 34.2734 9.3242 34.2734 15.7206C34.2734 22.0495 29.2717 27.2075 23.0838 27.3157C23.6488 27.7967 24.2322 28.2551 24.8333 28.6856L24.836 28.6876L24.8388 28.6896C25.6572 29.2777 26.3237 30.0487 26.7914 30.9306C33.4157 29.1642 38.3179 23.0149 38.3179 15.7206C38.3181 7.05221 31.3955 0 22.8863 0Z" fill="white"/>
<path d="M22.5069 32.0563C20.744 30.6226 19.6441 29.6679 18.07 28.1825C17.6069 27.7455 17.0409 27.4733 16.4597 27.4733C16.0149 27.4733 15.5756 27.6176 15.214 27.9199C14.8408 28.24 14.4676 28.56 14.0943 28.8799C11.0609 25.2075 8.80843 20.9282 7.48432 16.3221C7.95243 16.1826 8.42067 16.0429 8.88878 15.9033C9.92045 15.5815 10.4058 14.4595 10.2544 13.3348C9.92504 10.8867 9.74613 9.67057 9.54227 7.42646C9.43778 6.27618 8.68628 5.27698 7.60917 5.21724C7.44118 5.20062 7.27332 5.19238 7.10681 5.19238C3.10119 5.19238 -0.386428 9.92205 0.903702 15.7082C2.50905 22.8738 5.9844 29.4762 10.9549 34.8036C12.991 36.9814 15.4854 37.9675 17.7382 37.9675C20.1147 37.9675 22.2226 36.871 23.2435 34.9191C23.7907 33.9721 23.3933 32.7771 22.5069 32.0563Z" fill="white"/>
<path d="M18.2464 16.0113C17.1797 17.0196 16.4817 17.8124 16.1131 18.4345C15.8529 18.8734 15.6631 19.3373 15.5486 19.8135C15.4948 20.0377 15.5443 20.2703 15.6844 20.452C15.8243 20.6335 16.0344 20.7376 16.2609 20.7376H21.3515C21.9752 20.7376 22.4827 20.2206 22.4827 19.5852C22.4827 18.9499 21.9752 18.4329 21.3515 18.4329H19.0527C19.0714 18.4104 19.0907 18.3878 19.1104 18.3652C19.2606 18.1929 19.6284 17.8331 20.2034 17.2959C20.8065 16.7321 21.2136 16.3099 21.4481 16.0051C21.8015 15.547 22.0644 15.0996 22.2293 14.6758C22.3974 14.2438 22.4827 13.7833 22.4827 13.3068C22.4827 12.452 22.1788 11.7264 21.5795 11.1498C20.9842 10.5779 20.1646 10.2881 19.1431 10.2881C18.215 10.2881 17.4267 10.5356 16.8003 11.0237C16.4224 11.3185 16.1314 11.7268 15.9354 12.2377C15.803 12.5829 15.8372 12.9777 16.0271 13.2938C16.2169 13.61 16.5464 13.8208 16.9084 13.8576C16.9487 13.8617 16.9889 13.8638 17.0286 13.8638C17.5381 13.8638 17.9924 13.5337 18.1593 13.0426C18.2116 12.8886 18.2808 12.7662 18.3652 12.6786C18.5429 12.4942 18.7822 12.4043 19.097 12.4043C19.417 12.4043 19.656 12.4892 19.8275 12.6638C19.9986 12.8381 20.0818 13.0923 20.0818 13.4412C20.0818 13.7652 19.9681 14.103 19.744 14.4457C19.6239 14.6251 19.2649 15.0447 18.2464 16.0113Z" fill="white"/>
<path d="M28.4365 10.2881H27.5862C27.3439 10.2881 27.1177 10.4098 26.981 10.6136L23.0484 16.478C22.9337 16.6492 22.873 16.8493 22.873 17.0565V18.0068C22.873 18.4185 23.2019 18.7535 23.6059 18.7535H26.8343V19.5483C26.8343 20.2041 27.3581 20.7377 28.0019 20.7377C28.6456 20.7377 29.1694 20.2041 29.1694 19.5483V18.7535H29.2861C29.8843 18.7535 30.371 18.2576 30.371 17.6482C30.371 17.0388 29.8843 16.543 29.2861 16.543H29.1694V11.0347C29.1694 10.6231 28.8406 10.2881 28.4365 10.2881ZM26.8344 16.543H25.3853L26.8344 14.3485V16.543Z" fill="white"/>
</g>
<defs>
<clipPath id="clip0_632_9">
<rect width="39" height="38" fill="white"/>
</clipPath>
</defs>
</svg>
