<svg width="512" height="512" viewBox="0 0 512 512" fill="none" xmlns="http://www.w3.org/2000/svg">
<path opacity="0.913" fill-rule="evenodd" clip-rule="evenodd" d="M374.5 70.5C377.892 70.7173 380.725 72.0507 383 74.5C383.667 83.1667 383.667 91.8333 383 100.5C378 105.833 373 105.833 368 100.5C366.041 92.1579 366.041 83.8246 368 75.5C369.563 72.9771 371.73 71.3104 374.5 70.5Z" fill="url(#paint0_linear_3061_189)"/>
<path opacity="0.899" fill-rule="evenodd" clip-rule="evenodd" d="M333.5 81.4999C337.426 81.0465 340.592 82.3798 343 85.4999C345.667 90.1666 348.333 94.8332 351 99.4999C353.489 109.347 349.656 113.514 339.5 112C333.887 105.442 329.553 98.1089 326.5 89.9999C327.267 85.744 329.601 82.9107 333.5 81.4999Z" fill="url(#paint1_linear_3061_189)"/>
<path opacity="0.896" fill-rule="evenodd" clip-rule="evenodd" d="M412.5 81.5001C419.164 80.6743 423.164 83.5077 424.5 90.0001C421.447 98.1091 417.113 105.442 411.5 112C403.42 113.729 399.253 110.562 399 102.5C401.73 96.7066 404.73 91.04 408 85.5001C409.397 83.9298 410.897 82.5965 412.5 81.5001Z" fill="url(#paint2_linear_3061_189)"/>
<path opacity="0.97" fill-rule="evenodd" clip-rule="evenodd" d="M32.5 103.5C122.501 103.333 212.501 103.5 302.5 104C309.519 106.351 314.686 110.851 318 117.5C319.433 128.756 319.933 140.09 319.5 151.5C329.833 151.5 340.167 151.5 350.5 151.5C348.753 137.857 353.753 127.69 365.5 121C381.477 116.075 392.644 121.242 399 136.5C399.499 141.489 399.666 146.489 399.5 151.5C420.302 146.007 433.802 153.341 440 173.5C447.667 199.167 455.333 224.833 463 250.5C474.03 261.196 484.697 272.196 495 283.5C496.125 295.446 496.625 307.446 496.5 319.5C496.259 342.172 495.759 364.839 495 387.5C494.626 388.416 494.126 389.25 493.5 390C478.248 391.137 462.914 391.97 447.5 392.5C438.278 426.785 415.944 442.285 380.5 439C351.972 431.141 336.639 412.475 334.5 383C334.931 374.944 336.931 367.278 340.5 360C289.167 359.667 237.833 359.333 186.5 359C181.167 354 181.167 349 186.5 344C241.5 343.667 296.5 343.333 351.5 343C369.431 327.103 389.764 323.103 412.5 331C419.614 333.783 425.947 337.783 431.5 343C447.497 343.5 463.497 343.667 479.5 343.5C479.667 326.163 479.5 308.83 479 291.5C468.303 281.137 457.97 270.471 448 259.5C439.127 229.67 429.794 200.003 420 170.5C418.829 169.107 417.329 168.273 415.5 168C383.502 167.5 351.502 167.333 319.5 167.5C319.667 219.834 319.5 272.168 319 324.5C314 329.833 309 329.833 304 324.5C303.667 258.833 303.333 193.167 303 127.5C302.934 124.724 301.768 122.558 299.5 121C255.545 119.844 211.545 119.344 167.5 119.5C123.455 119.344 79.4552 119.844 35.5 121C33.2324 122.558 32.0657 124.724 32 127.5C31.5 199.499 31.3333 271.499 31.5 343.5C47.5035 343.667 63.5035 343.5 79.5 343C99.368 326.18 121.368 322.847 145.5 333C161.967 342.081 171.967 355.915 175.5 374.5C222.496 375.333 269.496 375.833 316.5 376C321.833 381 321.833 386 316.5 391C269.496 391.167 222.496 391.667 175.5 392.5C165.496 428.842 141.829 444.009 104.5 438C82.2385 430.572 68.5718 415.405 63.5 392.5C48.0855 391.97 32.7522 391.137 17.5 390C16.8742 389.25 16.3742 388.416 16 387.5C15.3333 298.5 15.3333 209.5 16 120.5C19.0191 112.316 24.5191 106.649 32.5 103.5ZM371.5 136.5C375.603 135.769 379.103 136.769 382 139.5C382.499 143.486 382.666 147.486 382.5 151.5C377.5 151.5 372.5 151.5 367.5 151.5C366.827 145.85 368.161 140.85 371.5 136.5ZM110.5 344.5C134.98 341.844 150.814 352.178 158 375.5C160.759 399.06 150.926 414.56 128.5 422C104.443 425.229 88.6095 415.395 81 392.5C77.9547 368.414 87.7881 352.414 110.5 344.5ZM382.5 344.5C406.98 341.844 422.814 352.178 430 375.5C432.759 399.06 422.926 414.56 400.5 422C375.991 425.132 360.158 414.965 353 391.5C350.438 367.922 360.271 352.255 382.5 344.5ZM31.5 359.5C43.8378 359.333 56.1712 359.5 68.5 360C65.9328 364.868 64.2661 370.035 63.5 375.5C52.8333 375.5 42.1667 375.5 31.5 375.5C31.5 370.167 31.5 364.833 31.5 359.5ZM442.5 360.5C454.655 359.505 466.989 359.171 479.5 359.5C479.5 364.833 479.5 370.167 479.5 375.5C468.813 375.832 458.146 375.499 447.5 374.5C446.599 369.458 444.933 364.791 442.5 360.5Z" fill="url(#paint3_linear_3061_189)"/>
<path opacity="0.97" fill-rule="evenodd" clip-rule="evenodd" d="M147.5 175.5C161.598 175.035 175.598 175.535 189.5 177C190.126 177.75 190.626 178.584 191 179.5C191.5 188.827 191.666 198.161 191.5 207.5C201.605 207.051 211.605 207.551 221.5 209C222.863 210.945 223.697 213.112 224 215.5C224.667 226.167 224.667 236.833 224 247.5C223.697 249.888 222.863 252.055 221.5 254C211.605 255.449 201.605 255.949 191.5 255.5C191.949 265.605 191.449 275.605 190 285.5C189.25 286.126 188.416 286.626 187.5 287C174.167 287.667 160.833 287.667 147.5 287C144.617 285.411 143.117 282.911 143 279.5C142.5 271.507 142.334 263.507 142.5 255.5C132.727 255.948 123.061 255.448 113.5 254C112.137 252.055 111.303 249.888 111 247.5C110.333 236.833 110.333 226.167 111 215.5C111.303 213.112 112.137 210.945 113.5 209C123.061 207.552 132.727 207.052 142.5 207.5C142.334 199.493 142.5 191.493 143 183.5C143.246 179.995 144.746 177.329 147.5 175.5ZM159.5 191.5C159.666 200.839 159.5 210.173 159 219.5C158.626 220.416 158.126 221.25 157.5 222C147.605 223.449 137.605 223.949 127.5 223.5C127.5 228.833 127.5 234.167 127.5 239.5C136.839 239.334 146.173 239.5 155.5 240C156.416 240.374 157.25 240.874 158 241.5C159.449 251.395 159.949 261.395 159.5 271.5C164.833 271.5 170.167 271.5 175.5 271.5C175.334 262.161 175.5 252.827 176 243.5C176.374 242.584 176.874 241.75 177.5 241C187.395 239.551 197.395 239.051 207.5 239.5C207.5 234.167 207.5 228.833 207.5 223.5C198.161 223.666 188.827 223.5 179.5 223C178.584 222.626 177.75 222.126 177 221.5C175.551 211.605 175.051 201.605 175.5 191.5C170.167 191.5 164.833 191.5 159.5 191.5Z" fill="url(#paint4_linear_3061_189)"/>
<path opacity="0.938" fill-rule="evenodd" clip-rule="evenodd" d="M342.5 182.5C364.22 182.044 385.887 182.544 407.5 184C409.584 185.501 410.917 187.501 411.5 190C417.937 211.81 424.27 233.643 430.5 255.5C430.352 258.63 429.018 261.13 426.5 263C396.747 263.984 367.081 263.65 337.5 262C336.137 260.055 335.303 257.888 335 255.5C334.333 233.833 334.333 212.167 335 190.5C335.68 185.989 338.18 183.323 342.5 182.5ZM351.5 199.5C351.5 215.167 351.5 230.833 351.5 246.5C371.169 246.667 390.836 246.5 410.5 246C405.76 230.879 401.094 215.713 396.5 200.5C381.515 199.501 366.515 199.167 351.5 199.5Z" fill="url(#paint5_linear_3061_189)"/>
<path opacity="0.942" fill-rule="evenodd" clip-rule="evenodd" d="M338.5 279.5C346.84 279.334 355.173 279.5 363.5 280C365.333 280.5 366.5 281.667 367 283.5C367.667 286.167 367.667 288.833 367 291.5C366.5 293.333 365.333 294.5 363.5 295C355.167 295.667 346.833 295.667 338.5 295C333.248 289.839 333.248 284.673 338.5 279.5Z" fill="url(#paint6_linear_3061_189)"/>
<path opacity="0.932" fill-rule="evenodd" clip-rule="evenodd" d="M112.5 359.5C127.367 357.012 137.534 362.678 143 376.5C145.982 391.376 140.482 401.543 126.5 407C108.062 409.727 97.3956 401.894 94.5 383.5C95.6258 371.724 101.626 363.724 112.5 359.5ZM115.5 376.5C114.878 377.627 114.045 378.627 113 379.5C111.485 389.158 115.319 392.325 124.5 389C128.493 379.822 125.493 375.655 115.5 376.5Z" fill="url(#paint7_linear_3061_189)"/>
<path opacity="0.933" fill-rule="evenodd" clip-rule="evenodd" d="M384.5 359.5C399.367 357.012 409.534 362.678 415 376.5C417.982 391.376 412.482 401.543 398.5 407C380.062 409.727 369.396 401.894 366.5 383.5C367.626 371.724 373.626 363.724 384.5 359.5ZM387.5 376.5C386.878 377.627 386.045 378.627 385 379.5C383.485 389.158 387.319 392.325 396.5 389C400.745 379.736 397.745 375.57 387.5 376.5Z" fill="url(#paint8_linear_3061_189)"/>
<defs>
<linearGradient id="paint0_linear_3061_189" x1="375.016" y1="70.5" x2="375.016" y2="104.5" gradientUnits="userSpaceOnUse">
<stop stop-color="#CA2112"/>
<stop offset="1" stop-color="#240C6C"/>
</linearGradient>
<linearGradient id="paint1_linear_3061_189" x1="339.117" y1="81.4136" x2="339.117" y2="112.302" gradientUnits="userSpaceOnUse">
<stop stop-color="#CA2112"/>
<stop offset="1" stop-color="#240C6C"/>
</linearGradient>
<linearGradient id="paint2_linear_3061_189" x1="411.75" y1="81.3604" x2="411.75" y2="112.458" gradientUnits="userSpaceOnUse">
<stop stop-color="#CA2112"/>
<stop offset="1" stop-color="#240C6C"/>
</linearGradient>
<linearGradient id="paint3_linear_3061_189" x1="256.009" y1="103.438" x2="256.009" y2="439.431" gradientUnits="userSpaceOnUse">
<stop stop-color="#CA2112"/>
<stop offset="1" stop-color="#240C6C"/>
</linearGradient>
<linearGradient id="paint4_linear_3061_189" x1="167.5" y1="175.332" x2="167.5" y2="287.5" gradientUnits="userSpaceOnUse">
<stop stop-color="#CA2112"/>
<stop offset="1" stop-color="#240C6C"/>
</linearGradient>
<linearGradient id="paint5_linear_3061_189" x1="382.5" y1="182.337" x2="382.5" y2="263.551" gradientUnits="userSpaceOnUse">
<stop stop-color="#CA2112"/>
<stop offset="1" stop-color="#240C6C"/>
</linearGradient>
<linearGradient id="paint6_linear_3061_189" x1="351.031" y1="279.438" x2="351.031" y2="295.5" gradientUnits="userSpaceOnUse">
<stop stop-color="#CA2112"/>
<stop offset="1" stop-color="#240C6C"/>
</linearGradient>
<linearGradient id="paint7_linear_3061_189" x1="119.143" y1="358.931" x2="119.143" y2="407.528" gradientUnits="userSpaceOnUse">
<stop stop-color="#CA2112"/>
<stop offset="1" stop-color="#240C6C"/>
</linearGradient>
<linearGradient id="paint8_linear_3061_189" x1="391.143" y1="358.931" x2="391.143" y2="407.528" gradientUnits="userSpaceOnUse">
<stop stop-color="#CA2112"/>
<stop offset="1" stop-color="#240C6C"/>
</linearGradient>
</defs>
</svg>
