<svg width="512" height="385" viewBox="0 0 512 385" fill="none" xmlns="http://www.w3.org/2000/svg">
<g clip-path="url(#clip0_3061_208)">
<path opacity="0.957" fill-rule="evenodd" clip-rule="evenodd" d="M511.5 252.5C511.5 264.167 511.5 275.833 511.5 287.5C501.017 315.077 481.35 325.244 452.5 318C445.137 314.631 438.971 309.798 434 303.5C416.709 320.529 396.543 325.029 373.5 317C347.175 303.848 336.675 282.682 342 253.5C352.962 223.1 374.462 210.266 406.5 215C414.993 217.247 422.66 221.08 429.5 226.5C435.541 223.337 441.041 224.004 446 228.5C447.057 246.78 448.057 265.114 449 283.5C455.432 298.076 465.932 301.91 480.5 295C484.928 291.908 487.761 287.741 489 282.5C493.257 242.864 479.424 211.364 447.5 188C406.625 163.991 367.625 166.657 330.5 196C302.031 223.752 292.864 256.919 303 295.5C315.578 330.747 340.078 352.58 376.5 361C390.98 363.406 405.313 362.739 419.5 359C429.084 355.62 438.584 352.12 448 348.5C457.398 350.661 460.398 356.328 457 365.5C451.374 370.733 444.874 374.566 437.5 377C386.342 394.002 342.176 383.168 305 344.5C293.491 331.484 285.658 316.484 281.5 299.5C199.499 299.667 117.499 299.5 35.5 299C16.54 295.204 4.53999 284.037 -0.5 265.5C-0.5 188.167 -0.5 110.833 -0.5 33.5C4.651 16.8497 15.651 6.01643 32.5 1.00003C145.5 0.333325 258.5 0.333325 371.5 1.00003C388.536 5.10112 399.369 15.6011 404 32.5C405.291 71.471 405.957 110.471 406 149.5C464.783 159.784 499.949 194.117 511.5 252.5ZM43.5 23.5C149.333 22.3341 255.333 22.1675 361.5 23C312.833 63 264.167 103 215.5 143C208.365 149.504 200.699 150.504 192.5 146C142.96 104.955 93.293 64.121 43.5 23.5ZM22.5 35.5C73.9866 77.42 125.32 119.586 176.5 162C192.337 173.821 208.67 174.487 225.5 164C276.833 121.667 328.167 79.333 379.5 37C380.167 36.3333 380.833 36.3333 381.5 37C382.264 39.069 382.764 41.236 383 43.5C383.667 78.833 383.667 114.167 383 149.5C322.792 159.375 287.458 194.375 277 254.5C276.5 262.159 276.334 269.826 276.5 277.5C197.499 277.667 118.499 277.5 39.5 277C30.5207 275.353 24.6874 270.186 22 261.5C21.1758 186.139 21.3425 110.805 22.5 35.5ZM391.5 235.5C414.944 237.405 426.11 250.072 425 273.5C416.929 295.619 401.762 302.785 379.5 295C362.477 283.231 358.644 268.065 368 249.5C374.041 241.573 381.874 236.906 391.5 235.5Z" fill="url(#paint0_linear_3061_208)"/>
</g>
<defs>
<linearGradient id="paint0_linear_3061_208" x1="255.5" y1="0.5" x2="255.5" y2="384.789" gradientUnits="userSpaceOnUse">
<stop stop-color="#CD1F14"/>
<stop offset="1" stop-color="#240C6C"/>
</linearGradient>
<clipPath id="clip0_3061_208">
<rect width="512" height="385" fill="white"/>
</clipPath>
</defs>
</svg>
