<svg width="512" height="512" viewBox="0 0 512 512" fill="none" xmlns="http://www.w3.org/2000/svg">
<g clip-path="url(#clip0_3061_182)">
<path opacity="0.933" fill-rule="evenodd" clip-rule="evenodd" d="M355.5 -0.5C366.167 -0.5 376.833 -0.5 387.5 -0.5C440.085 7.90887 476.252 36.9089 496 86.5C509.283 130.74 504.283 172.74 481 212.5C459.565 241.488 431.399 260.988 396.5 271C385.508 274.265 374.341 276.765 363 278.5C355.139 276.776 352.472 272.11 355 264.5C355.833 263.667 356.667 262.833 357.5 262C380.572 257.865 402.572 250.531 423.5 240C464.661 215.877 485.327 179.71 485.5 131.5C483.54 84.4201 461.874 49.9201 420.5 28C367.941 7.04329 322.441 17.21 284 58.5C248.733 106.837 248.733 155.17 284 203.5C290.364 210.199 297.031 216.532 304 222.5C305.917 227.278 305.583 231.945 303 236.5C299.805 243.551 296.638 250.551 293.5 257.5C293.57 258.772 293.903 259.938 294.5 261C303.707 262.593 306.874 267.759 304 276.5C302.13 279.018 299.63 280.352 296.5 280.5C283.283 278.783 275.95 271.283 274.5 258C275 255.5 275.5 253 276 250.5C279.151 244.198 282.318 237.864 285.5 231.5C240.941 188.591 229.108 137.925 250 79.5C271.219 34.3202 306.386 7.65353 355.5 -0.5Z" fill="url(#paint0_linear_3061_182)"/>
<path opacity="0.941" fill-rule="evenodd" clip-rule="evenodd" d="M361.5 70.5C391.142 66.8102 404.809 79.8102 402.5 109.5C432.343 107.177 445.177 120.844 441 150.5C438.5 161 432 167.5 421.5 170C415.175 170.5 408.842 170.666 402.5 170.5C402.73 177.555 402.23 184.555 401 191.5C395.961 204.953 386.128 211.286 371.5 210.5C356.797 210.906 346.963 204.239 342 190.5C341.5 183.842 341.334 177.175 341.5 170.5C308.529 172.689 296.029 157.689 304 125.5C307.323 118.246 312.823 113.412 320.5 111C327.445 109.77 334.445 109.27 341.5 109.5C337.635 90.5958 344.302 77.5958 361.5 70.5ZM365.5 88.5C363.239 89.5897 361.406 91.2563 360 93.5C359.927 103.906 359.26 114.239 358 124.5C357.097 125.701 355.931 126.535 354.5 127C344.441 127.104 334.441 127.771 324.5 129C320.93 131.678 319.263 135.344 319.5 140C318.991 145.385 320.991 149.385 325.5 152C334.833 152.333 344.167 152.667 353.5 153C355.286 153.785 356.786 154.951 358 156.5C359.284 166.401 359.951 176.401 360 186.5C362.615 191.009 366.615 193.009 372 192.5C376.656 192.737 380.322 191.07 383 187.5C383.948 176.793 384.948 166.126 386 155.5C387.171 154.107 388.671 153.273 390.5 153C399.833 152.667 409.167 152.333 418.5 152C422.62 149.087 424.286 145.087 423.5 140C424.507 135.02 422.84 131.353 418.5 129C408.573 127.742 398.573 127.076 388.5 127C387.333 125.833 386.167 124.667 385 123.5C384.667 114.5 384.333 105.5 384 96.5C383.496 92.9798 381.663 90.4798 378.5 89C374.179 88.501 369.846 88.3343 365.5 88.5Z" fill="url(#paint1_linear_3061_182)"/>
<path opacity="0.934" fill-rule="evenodd" clip-rule="evenodd" d="M162.5 511.5C152.833 511.5 143.167 511.5 133.5 511.5C120.394 509.297 107.894 504.963 96.0001 498.5C60.8253 513.766 32.492 505.766 11.0001 474.5C6.26605 468.714 6.43272 463.214 11.5001 458C16.9461 455.382 21.4461 456.549 25.0001 461.5C37.1979 484.011 55.6979 491.845 80.5001 485C64.9659 468.37 61.4659 449.537 70.0001 428.5C79.5327 414.877 92.366 410.377 108.5 415C118.27 419.026 124.437 426.193 127 436.5C131.46 455.782 126.626 472.282 112.5 486C151.43 501.183 185.096 493.517 213.5 463C147.197 425.364 100.197 371.03 72.5001 300C61.563 268.801 59.063 236.968 65.0001 204.5C71.6571 175.549 85.4905 150.715 106.5 130C121.992 116.696 138.992 114.362 157.5 123C186.233 139.731 208.067 162.898 223 192.5C227.176 206.443 225.176 219.443 217 231.5C209.667 237.5 203 244.167 197 251.5C189.462 264.068 187.795 277.401 192 291.5C204.644 328.479 229.811 351.979 267.5 362C279.273 364.072 290.273 362.072 300.5 356C308.167 349.667 315.167 342.667 321.5 335C337.291 325.43 353.291 325.097 369.5 334C396.535 350.368 417.369 372.534 432 400.5C436.535 414.644 434.868 427.977 427 440.5C385.264 484.989 334.43 500.156 274.5 486C269.167 480.667 269.167 475.333 274.5 470C276 469.5 277.5 469 279 468.5C319.449 478.534 356.782 471.867 391 448.5C391.667 447.5 391.667 446.5 391 445.5C377.217 424.71 360.884 406.043 342 389.5C339.461 380.026 342.961 375.526 352.5 376C364.592 384.757 375.426 394.924 385 406.5C392.576 415.987 399.909 425.654 407 435.5C415.756 427.9 418.422 418.567 415 407.5C400.368 380.2 379.201 359.7 351.5 346C345.141 344.902 339.141 345.902 333.5 349C309.272 381.053 278.606 389.053 241.5 373C206.297 355.795 183.463 328.295 173 290.5C169.285 271.819 172.785 254.652 183.5 239C167.558 214.719 148.391 193.219 126 174.5C123.49 166.851 126.157 162.185 134 160.5C136.321 160.909 138.487 161.743 140.5 163C162.178 181.34 181.011 202.174 197 225.5C206.623 217.705 209.29 208.038 205 196.5C190.833 171.667 171.333 152.167 146.5 138C136.536 134.259 127.536 135.926 119.5 143C81.1698 183.953 70.3365 231.453 87.0001 285.5C104.024 336.059 132.857 378.559 173.5 413C192.877 428.443 213.377 442.276 235 454.5C235.667 457.5 235.667 460.5 235 463.5C217.868 490.134 193.701 506.134 162.5 511.5ZM93.5001 431.5C102.052 430.547 107.552 434.214 110 442.5C112.075 456.018 107.742 467.018 97.0001 475.5C84.987 465.139 81.3203 452.472 86.0001 437.5C88.1338 434.847 90.6338 432.847 93.5001 431.5Z" fill="url(#paint2_linear_3061_182)"/>
</g>
<defs>
<linearGradient id="paint0_linear_3061_182" x1="371.617" y1="-0.5" x2="371.617" y2="280.5" gradientUnits="userSpaceOnUse">
<stop stop-color="#CA2112"/>
<stop offset="1" stop-color="#240C6C"/>
</linearGradient>
<linearGradient id="paint1_linear_3061_182" x1="371.721" y1="69.8882" x2="371.721" y2="210.565" gradientUnits="userSpaceOnUse">
<stop stop-color="#CA2112"/>
<stop offset="1" stop-color="#240C6C"/>
</linearGradient>
<linearGradient id="paint2_linear_3061_182" x1="221.029" y1="117.899" x2="221.029" y2="511.5" gradientUnits="userSpaceOnUse">
<stop stop-color="#CA2112"/>
<stop offset="1" stop-color="#240C6C"/>
</linearGradient>
<clipPath id="clip0_3061_182">
<rect width="512" height="512" fill="white"/>
</clipPath>
</defs>
</svg>
