<svg width="303" height="26" viewBox="0 0 303 26" fill="none" xmlns="http://www.w3.org/2000/svg">
<path d="M0.339746 13.8675L9 22.5277L17.6603 13.8675L9 5.20722L0.339746 13.8675ZM124.6 13.8675V15.3675H125.209L125.646 14.9427L124.6 13.8675ZM131.4 7.25301L132.635 6.4023L131.628 4.9389L130.354 6.17778L131.4 7.25301ZM137 15.3855L135.765 16.2363L137.033 18.0781L138.256 16.2059L137 15.3855ZM143.8 4.9759L145.155 4.33295L144.008 1.91479L142.544 4.15556L143.8 4.9759ZM151.5 21.2059L150.145 21.8488L151.419 24.5355L152.823 21.9136L151.5 21.2059ZM157.4 10.1807L158.669 9.38026L157.293 7.20085L156.077 9.47298L157.4 10.1807ZM162.6 18.4217L161.331 19.2221L162.517 21.1012L163.817 19.2991L162.6 18.4217ZM173 4L174.445 3.59853L173.61 0.590154L171.783 3.12263L173 4ZM178 22L176.555 22.4015L177.347 25.2549L179.179 22.9276L178 22ZM184.4 13.8675V12.3675H183.672L183.221 12.9398L184.4 13.8675ZM302.66 13.8675L294 5.20722L285.34 13.8675L294 22.5277L302.66 13.8675ZM9 15.3675H124.6V12.3675H9V15.3675ZM125.646 14.9427L132.446 8.32824L130.354 6.17778L123.554 12.7922L125.646 14.9427ZM130.165 8.10372L135.765 16.2363L138.235 14.5348L132.635 6.4023L130.165 8.10372ZM138.256 16.2059L145.056 5.79625L142.544 4.15556L135.744 14.5652L138.256 16.2059ZM142.445 5.61886L150.145 21.8488L152.855 20.5629L145.155 4.33295L142.445 5.61886ZM152.823 21.9136L158.723 10.8885L156.077 9.47298L150.177 20.4981L152.823 21.9136ZM156.131 10.9812L161.331 19.2221L163.869 17.6212L158.669 9.38026L156.131 10.9812ZM163.817 19.2991L174.217 4.87737L171.783 3.12263L161.383 17.5443L163.817 19.2991ZM171.555 4.40147L176.555 22.4015L179.445 21.5985L174.445 3.59853L171.555 4.40147ZM179.179 22.9276L185.579 14.7951L183.221 12.9398L176.821 21.0724L179.179 22.9276ZM184.4 15.3675H294V12.3675H184.4V15.3675Z" fill="#CC2014"/>
</svg>
