<svg width="512" height="512" viewBox="0 0 512 512" fill="none" xmlns="http://www.w3.org/2000/svg">
<g clip-path="url(#clip0_3061_211)">
<path opacity="0.944" fill-rule="evenodd" clip-rule="evenodd" d="M236.5 -0.5C249.167 -0.5 261.833 -0.5 274.5 -0.5C354.255 12.8164 403.755 58.8164 423 137.5C430.494 180.205 423.827 220.539 403 258.5C394.081 274.01 384.415 289.01 374 303.5C355.5 327.333 337 351.167 318.5 375C336.805 378.41 354.805 383.076 372.5 389C390.241 394.948 405.408 404.782 418 418.5C428 433.833 428 449.167 418 464.5C406.63 476.771 393.13 485.938 377.5 492C347.276 502.81 316.276 509.31 284.5 511.5C265.167 511.5 245.833 511.5 226.5 511.5C192.083 509.314 158.749 501.814 126.5 489C113.648 483.155 102.481 474.989 93.0002 464.5C83.0002 449.167 83.0002 433.833 93.0002 418.5C110.86 400.315 132.36 388.481 157.5 383C169.162 380.202 180.828 377.535 192.5 375C174 351.167 155.5 327.333 137 303.5C122.908 284.331 110.575 263.998 100 242.5C85.5697 208.72 81.5697 173.72 88.0002 137.5C101.868 75.3043 138.368 32.471 197.5 9C210.363 4.70016 223.363 1.5335 236.5 -0.5ZM254.5 19.5C317.895 22.4529 363.729 52.1195 392 108.5C412.406 160.295 408.073 209.961 379 257.5C371.915 268.672 364.581 279.672 357 290.5C322.944 334.381 289.111 378.381 255.5 422.5C224.938 381.762 193.771 341.429 162 301.5C150.591 286.353 139.925 270.686 130 254.5C104.322 211.47 99.3218 166.136 115 118.5C141.102 56.8572 187.602 23.8572 254.5 19.5ZM206.5 394.5C220.264 410.646 233.098 427.646 245 445.5C252 453.5 259 453.5 266 445.5C277.936 427.964 290.603 410.964 304 394.5C332.214 397.595 359.048 405.429 384.5 418C392.618 422.451 399.118 428.617 404 436.5C405.041 441.44 404.374 446.106 402 450.5C393.824 459.675 383.991 466.508 372.5 471C334.742 484.738 295.742 491.571 255.5 491.5C215.258 491.571 176.258 484.738 138.5 471C95.8335 451.333 95.8335 431.667 138.5 412C160.565 403.318 183.231 397.485 206.5 394.5Z" fill="url(#paint0_linear_3061_211)"/>
<path opacity="0.905" fill-rule="evenodd" clip-rule="evenodd" d="M251.5 39.5002C262.988 38.1544 267.822 43.1544 266 54.5002C262.301 59.2722 257.467 60.7722 251.5 59.0002C243.683 52.4792 243.683 45.9792 251.5 39.5002Z" fill="url(#paint1_linear_3061_211)"/>
<path opacity="0.939" fill-rule="evenodd" clip-rule="evenodd" d="M291.5 46.5C295.605 46.2338 299.605 46.7338 303.5 48C350.177 68.0197 377.344 103.186 385 153.5C385.667 160.833 385.667 168.167 385 175.5C378.667 182.167 372.333 182.167 366 175.5C365.702 137.208 350.869 106.041 321.5 82C310.423 74.752 298.923 68.252 287 62.5C283.994 55.7714 285.494 50.4381 291.5 46.5Z" fill="url(#paint2_linear_3061_211)"/>
<path opacity="0.944" fill-rule="evenodd" clip-rule="evenodd" d="M243.5 99.4999C280.726 96.2709 306.893 111.604 322 145.5C331.793 179.116 322.96 206.616 295.5 228C273.509 240.988 250.509 242.988 226.5 234C193.678 216.52 180.512 189.354 187 152.5C195.741 123.922 214.574 106.255 243.5 99.4999ZM245.5 120.5C225.516 126.318 212.683 139.318 207 159.5C204.49 194.323 220.49 214.323 255 219.5C290.019 214.811 306.352 194.811 304 159.5C295.104 130.794 275.604 117.794 245.5 120.5Z" fill="url(#paint3_linear_3061_211)"/>
</g>
<defs>
<linearGradient id="paint0_linear_3061_211" x1="255.501" y1="-0.5" x2="255.501" y2="511.5" gradientUnits="userSpaceOnUse">
<stop stop-color="#CD1F14"/>
<stop offset="1" stop-color="#240C6C"/>
</linearGradient>
<linearGradient id="paint1_linear_3061_211" x1="256.006" y1="39.2861" x2="256.006" y2="59.7199" gradientUnits="userSpaceOnUse">
<stop stop-color="#CD1F14"/>
<stop offset="1" stop-color="#240C6C"/>
</linearGradient>
<linearGradient id="paint2_linear_3061_211" x1="335.498" y1="46.4307" x2="335.498" y2="180.5" gradientUnits="userSpaceOnUse">
<stop stop-color="#CD1F14"/>
<stop offset="1" stop-color="#240C6C"/>
</linearGradient>
<linearGradient id="paint3_linear_3061_211" x1="255.628" y1="99.0786" x2="255.628" y2="239.514" gradientUnits="userSpaceOnUse">
<stop stop-color="#CD1F14"/>
<stop offset="1" stop-color="#240C6C"/>
</linearGradient>
<clipPath id="clip0_3061_211">
<rect width="512" height="512" fill="white"/>
</clipPath>
</defs>
</svg>
