<svg width="512" height="512" viewBox="0 0 512 512" fill="none" xmlns="http://www.w3.org/2000/svg">
<path opacity="0.908" fill-rule="evenodd" clip-rule="evenodd" d="M378.5 25.5C381.685 25.0196 384.519 25.6863 387 27.5C387.5 34.1583 387.666 40.825 387.5 47.5C413.167 47.5 438.833 47.5 464.5 47.5C464.116 40.4112 464.616 33.4112 466 26.5C468.801 25.2054 471.634 25.2054 474.5 26.5C475.667 177.499 475.833 328.499 475 479.5C470.331 482.669 466.998 481.669 465 476.5C464.5 337.167 464.333 197.834 464.5 58.5C448.5 58.5 432.5 58.5 416.5 58.5C416.5 64.1667 416.5 69.8333 416.5 75.5C426.172 75.3335 435.839 75.5002 445.5 76C446.308 76.3076 446.975 76.8076 447.5 77.5C448.656 100.79 448.823 124.124 448 147.5C444.044 164.29 433.544 173.956 416.5 176.5C416.667 256.167 416.5 335.834 416 415.5C411.36 438.308 397.526 451.308 374.5 454.5C374.666 462.84 374.5 471.173 374 479.5C373.25 480.126 372.416 480.626 371.5 481C277.167 481.667 182.833 481.667 88.5 481C83.6708 478.163 83.3375 474.829 87.5 471C179.833 470.5 272.166 470.333 364.5 470.5C364.5 465.167 364.5 459.833 364.5 454.5C342.387 451.558 328.554 439.225 323 417.5C322.333 401.833 322.333 386.167 323 370.5C326.075 367.941 329.075 367.941 332 370.5C333.302 385.407 333.968 400.407 334 415.5C338.289 431.291 348.455 440.624 364.5 443.5C364.938 419.795 364.438 396.128 363 372.5C360.928 365.427 356.428 360.594 349.5 358C262.869 356.347 176.202 356.013 89.5 357C80.0431 358.303 73.8764 363.47 71 372.5C70.6667 407.5 70.3333 442.5 70 477.5C67.427 481.809 64.0937 482.476 60 479.5C59.3333 443.167 59.3333 406.833 60 370.5C62.7387 361.269 68.2387 354.269 76.5 349.5C77.3333 287.169 77.8333 224.836 78 162.5C81.3333 159.833 84.6667 159.833 88 162.5C88.3333 223.833 88.6667 285.167 89 346.5C92.73 345.54 96.5633 345.207 100.5 345.5C100.333 308.165 100.5 270.832 101 233.5C106.639 205.862 123.139 188.695 150.5 182C155.815 181.187 161.148 180.521 166.5 180C179.804 163.001 197.304 155.501 219 157.5C240.696 155.501 258.196 163.001 271.5 180C308.673 183.509 329.84 203.676 335 240.5C335.5 275.498 335.667 310.498 335.5 345.5C352.881 344.1 365.381 351.1 373 366.5C374.463 392.115 374.963 417.782 374.5 443.5C391.444 440.389 401.611 430.389 405 413.5C405.5 334.501 405.667 255.501 405.5 176.5C388.017 173.851 377.517 163.851 374 146.5C373.333 123.833 373.333 101.167 374 78.5C374.833 77.6667 375.667 76.8333 376.5 76C386.161 75.5002 395.828 75.3335 405.5 75.5C405.5 69.8333 405.5 64.1667 405.5 58.5C396.827 58.6664 388.16 58.4998 379.5 58C379 57.5 378.5 57 378 56.5C376.886 51.6093 376.386 46.6093 376.5 41.5C376.667 37.1667 376.833 32.8333 377 28.5C377.513 27.4734 378.013 26.4734 378.5 25.5ZM384.5 86.5C402.167 86.5 419.833 86.5 437.5 86.5C437.954 107.554 437.454 128.554 436 149.5C432.472 157.86 426.305 163.194 417.5 165.5C416.673 161.541 416.173 157.541 416 153.5C413.24 151.297 410.24 150.964 407 152.5C405.958 156.759 405.125 161.093 404.5 165.5C393.656 162.49 387.156 155.49 385 144.5C384.5 125.17 384.333 105.836 384.5 86.5ZM203.5 168.5C213.839 168.334 224.172 168.5 234.5 169C242.927 170.58 250.26 174.247 256.5 180C251.017 182.496 245.517 184.996 240 187.5C226.517 181.671 213.017 175.837 199.5 170C201.058 169.79 202.391 169.29 203.5 168.5ZM185.5 176.5C198.474 181.985 211.474 187.485 224.5 193C220.65 195.091 216.65 196.924 212.5 198.5C200.901 194.032 189.568 189.032 178.5 183.5C180.548 180.785 182.882 178.452 185.5 176.5ZM262.5 189.5C263.496 189.414 264.329 189.748 265 190.5C266.312 192.955 267.478 195.455 268.5 198C236.833 211.167 205.167 224.333 173.5 237.5C171.292 244.287 173.626 247.121 180.5 246C199.28 238.777 217.946 231.277 236.5 223.5C242.5 225.833 248.5 228.167 254.5 230.5C254.335 242.526 259.502 251.192 270 256.5C275.732 285.04 266.232 306.54 241.5 321C217.009 330.304 195.842 325.471 178 306.5C173.946 301.058 170.946 295.058 169 288.5C167.395 268.543 167.061 248.543 168 228.5C199.631 215.594 231.131 202.594 262.5 189.5ZM158.5 191.5C159.239 191.369 159.906 191.536 160.5 192C158.735 195.63 157.568 199.463 157 203.5C156.5 216.829 156.333 230.163 156.5 243.5C149.691 244.805 145.191 248.805 143 255.5C140.283 267.4 144.45 275.733 155.5 280.5C158.996 303.812 171.163 320.812 192 331.5C192.16 335.287 192.826 338.954 194 342.5C201.005 345.326 204.171 342.993 203.5 335.5C213.836 336.8 224.17 336.8 234.5 335.5C234.382 343.618 237.882 345.618 245 341.5C245.333 338.167 245.667 334.833 246 331.5C266.847 320.804 279.014 303.804 282.5 280.5C293.543 275.748 297.709 267.415 295 255.5C292.809 248.805 288.309 244.805 281.5 243.5C281.667 229.829 281.5 216.163 281 202.5C280.608 199.373 279.775 196.373 278.5 193.5C297.87 195.469 311.704 205.469 320 223.5C322.281 229.29 323.614 235.29 324 241.5C324.5 276.165 324.667 310.832 324.5 345.5C253.5 345.5 182.5 345.5 111.5 345.5C111.031 307.127 111.531 268.793 113 230.5C120.549 208.493 135.715 195.493 158.5 191.5ZM171.5 193.5C179.808 196.985 188.141 200.485 196.5 204C187.191 208.57 177.691 212.737 168 216.5C166.808 208.453 167.975 200.787 171.5 193.5ZM269.5 209.5C270.29 210.609 270.79 211.942 271 213.5C271.667 223.833 271.667 234.167 271 244.5C268.894 242.623 267.561 240.29 267 237.5C266.779 232.78 266.279 228.113 265.5 223.5C261.21 221.237 256.877 219.071 252.5 217C258.393 214.768 264.059 212.268 269.5 209.5ZM155.5 255.5C156.645 259.311 156.812 263.311 156 267.5C152.889 263.7 152.722 259.7 155.5 255.5ZM282.5 256.5C284.011 257.958 285.011 259.791 285.5 262C284.671 263.816 283.837 265.649 283 267.5C282.501 263.848 282.335 260.182 282.5 256.5Z" fill="url(#paint0_linear_3061_162)"/>
<path opacity="0.907" fill-rule="evenodd" clip-rule="evenodd" d="M80.4998 138.5C171.834 138.333 263.167 138.5 354.5 139C355.333 139.833 356.167 140.667 357 141.5C357.667 205.5 357.667 269.5 357 333.5C353.667 337.5 350.333 337.5 347 333.5C346.5 272.168 346.333 210.834 346.5 149.5C257.833 149.667 169.166 149.5 80.4998 149C76.5652 145.504 76.5652 142.004 80.4998 138.5Z" fill="url(#paint1_linear_3061_162)"/>
<path opacity="0.844" fill-rule="evenodd" clip-rule="evenodd" d="M188.5 262.5C191.695 261.961 194.195 262.961 196 265.5C201.144 260.861 204.977 261.694 207.5 268C203.474 276.812 197.14 278.812 188.5 274C184.542 270.092 184.542 266.259 188.5 262.5Z" fill="url(#paint2_linear_3061_162)"/>
<path opacity="0.851" fill-rule="evenodd" clip-rule="evenodd" d="M234.5 262.5C237.652 261.959 240.152 262.959 242 265.5C244.264 262.48 247.097 261.813 250.5 263.5C253.753 269.508 252.086 273.675 245.5 276C235.945 277.766 231.445 273.933 232 264.5C232.995 263.934 233.828 263.267 234.5 262.5Z" fill="url(#paint3_linear_3061_162)"/>
<defs>
<linearGradient id="paint0_linear_3061_162" x1="267.51" y1="25.3491" x2="267.51" y2="481.5" gradientUnits="userSpaceOnUse">
<stop stop-color="#CA2112"/>
<stop offset="1" stop-color="#240C6C"/>
</linearGradient>
<linearGradient id="paint1_linear_3061_162" x1="217.524" y1="138.438" x2="217.524" y2="336.5" gradientUnits="userSpaceOnUse">
<stop stop-color="#CA2112"/>
<stop offset="1" stop-color="#240C6C"/>
</linearGradient>
<linearGradient id="paint2_linear_3061_162" x1="196.516" y1="262.358" x2="196.516" y2="276.549" gradientUnits="userSpaceOnUse">
<stop stop-color="#CA2112"/>
<stop offset="1" stop-color="#240C6C"/>
</linearGradient>
<linearGradient id="paint3_linear_3061_162" x1="242.034" y1="262.357" x2="242.034" y2="276.418" gradientUnits="userSpaceOnUse">
<stop stop-color="#CA2112"/>
<stop offset="1" stop-color="#240C6C"/>
</linearGradient>
</defs>
</svg>
