<svg width="36" height="37" viewBox="0 0 36 37" fill="none" xmlns="http://www.w3.org/2000/svg">
<g clip-path="url(#clip0_1493_367)">
<path d="M0 36.041L2.48273 27.041C0.868992 24.2479 0 21.1445 0 17.9168C0 8.11001 8.06899 0.0410156 17.9379 0.0410156C27.8068 0.0410156 36 8.11001 36 17.9168C36 27.7237 27.8069 36.041 17.9379 36.041C14.8345 36.041 11.8552 35.0479 9.18619 33.5583L0 36.041Z" fill="#2CB742"/>
<path d="M9.68084 30.3307L10.2395 30.6411C12.536 32.0686 15.205 32.9376 17.9981 32.9376C26.1291 32.9376 32.8947 26.1721 32.8947 17.9169C32.8947 9.66173 26.1291 3.14453 17.936 3.14453C9.74293 3.14453 3.10156 9.72381 3.10156 17.9169C3.10156 20.7721 3.90847 23.5652 5.39811 25.9238L5.77055 26.4824L4.343 31.6963L9.68084 30.3307Z" fill="#2CB742"/>
<path d="M13.1556 9.59968L11.9763 9.5376C11.6039 9.5376 11.2315 9.66177 10.9832 9.91004C10.4246 10.4066 9.49358 11.3376 9.24531 12.579C8.81085 14.4411 9.49358 16.6756 11.1074 18.91C12.7212 21.1445 15.8247 24.7445 21.2867 26.2962C23.0246 26.7928 24.3901 26.4824 25.5074 25.7997C26.3764 25.2411 26.9349 24.3721 27.1212 23.4411L27.3074 22.5721C27.3695 22.3238 27.2453 22.0134 26.997 21.8893L23.0867 20.0893C22.8384 19.9652 22.528 20.0272 22.3419 20.2755L20.7901 22.2617C20.666 22.3859 20.4798 22.4479 20.2936 22.3859C19.2384 22.0134 15.7005 20.5238 13.7763 16.7997C13.7142 16.6135 13.7142 16.4272 13.8384 16.3031L15.328 14.6273C15.4522 14.4411 15.5142 14.1928 15.4522 14.0066L13.6522 9.97213C13.5901 9.78587 13.4039 9.59968 13.1556 9.59968Z" fill="#FEFEFE"/>
</g>
<defs>
<clipPath id="clip0_1493_367">
<rect width="36" height="36" fill="white" transform="translate(0 0.0410156)"/>
</clipPath>
</defs>
</svg>
